# xmcd
#
# Track frame offsets: 
#        150
#        5600
#        15250
#        24182
#        36097
#        44335
#        53485
#        62147
#        73142
#        84615
#        93652
#        105167
#        115057
#        125480
#        135840
#        145067
#        153500
#        165490
#        174830
#        185710
#
# Disc length: 2595 seconds
#
# Revision: 0
# Processed by: cddbd v1.5.1PL2 Copyright (c) Steve Scherf et al.
# Submitted via: ExactAudioCopy v0.95b4
#
DISCID=f50a2114
DTITLE=Johnny Cash - The Sun Years 1955-1958 Disk 3
DYEAR=1991
DGENRE=Country
TTITLE0=My treasure
TTITLE1=Born To loose
TTITLE2=Life Goes On
TTITLE3=You're The Nearest Thing To Heaven
TTITLE4=Always Alone
TTITLE5=Blue Train
TTITLE6=Katy Too
TTITLE7=Mean Eyed Cat
TTITLE8=Port of lonely Hearts
TTITLE9=Luther Played The Boogie
TTITLE10=Thanks A Lot
TTITLE11=The Ways Of A Woman In Love
TTITLE12=Fools Hall Of Fame
TTITLE13=I Just Thought You'ld Like To Know
TTITLE14=Just About Time
TTITLE15=I Forgot To Remember To Forget
TTITLE16=Goodnight Irene
TTITLE17=New Mexico
TTITLE18=I Love You Because
TTITLE19=I Couldn't Keep from Crying
EXTD=
EXTT0=
EXTT1=
EXTT2=
EXTT3=
EXTT4=
EXTT5=
EXTT6=
EXTT7=
EXTT8=
EXTT9=
EXTT10=
EXTT11=
EXTT12=
EXTT13=
EXTT14=
EXTT15=
EXTT16=
EXTT17=
EXTT18=
EXTT19=
PLAYORDER=
